<svg width="152" height="152" viewBox="0 0 152 152" fill="none" xmlns="http://www.w3.org/2000/svg">
<circle cx="75.6904" cy="75.6904" r="75.6904" fill="#4A87E1"/>
<path d="M75.6904 29.5664L80.421 69.7769L120.632 76.8729L80.421 83.9689L75.6904 124.179L70.9597 83.9689L30.7492 76.8729L70.9597 69.7769L75.6904 29.5664Z" fill="white"/>
<path d="M75.6904 102.892C90.06 102.892 101.709 91.2427 101.709 76.8731C101.709 62.5034 90.06 50.8545 75.6904 50.8545C61.3207 50.8545 49.6718 62.5034 49.6718 76.8731C49.6718 91.2427 61.3207 102.892 75.6904 102.892Z" stroke="white" stroke-width="5.91331"/>
<path d="M80.7753 21.3652H77.8544L73.7382 11.1267L71.597 21.3652H68.6761L71.8568 6.12691H74.7881L78.9147 16.3239L81.0456 6.12691H83.956L80.7753 21.3652Z" fill="white"/>
<path d="M70.3462 138.242L73.3295 138.086C73.371 139.036 73.5339 139.677 73.818 140.009C74.2754 140.55 75.1208 140.82 76.3543 140.82C77.3798 140.82 78.1213 140.637 78.5787 140.269C79.036 139.902 79.2647 139.458 79.2647 138.939C79.2647 138.488 79.0776 138.107 78.7034 137.795C78.4401 137.567 77.7159 137.196 76.531 136.683C75.3529 136.17 74.4902 135.744 73.9427 135.405C73.4022 135.058 72.976 134.611 72.6642 134.064C72.3524 133.516 72.1965 132.875 72.1965 132.141C72.1965 130.859 72.6607 129.795 73.5893 128.95C74.5179 128.104 75.8622 127.682 77.6224 127.682C79.4102 127.682 80.7927 128.101 81.7698 128.939C82.7538 129.778 83.2943 130.893 83.3913 132.286L80.3873 132.421C80.3111 131.694 80.0478 131.136 79.5973 130.748C79.1469 130.36 78.4817 130.166 77.6016 130.166C76.7354 130.166 76.1152 130.318 75.741 130.623C75.3737 130.928 75.1901 131.313 75.1901 131.777C75.1901 132.214 75.3598 132.574 75.6994 132.858C76.039 133.149 76.7908 133.547 77.955 134.053C79.7082 134.809 80.8239 135.422 81.302 135.893C82.0158 136.586 82.3727 137.477 82.3727 138.565C82.3727 139.909 81.8391 141.059 80.7719 142.016C79.7117 142.965 78.2322 143.44 76.3335 143.44C75.0238 143.44 73.8873 143.221 72.9241 142.785C71.9678 142.341 71.2921 141.728 70.8971 140.945C70.5022 140.162 70.3185 139.261 70.3462 138.242Z" fill="white"/>
<path d="M130.184 82.8638L133.365 67.6254H144.663L144.133 70.1721H135.974L135.246 73.6335H143.135L142.605 76.1801H134.716L133.76 80.3171H142.626L142.086 82.8638H130.184Z" fill="white"/>
<path d="M20.5422 82.8638H17.3719L17.0289 71.7209L11.4782 82.8638H8.24555L7.67386 67.6254H10.7402L10.8754 78.2902L16.1038 67.6254H19.5028L19.8562 78.1759L24.8767 67.6254H27.9119L20.5422 82.8638Z" fill="white"/>
<path d="M121.98 37.9973L82.7632 83.2551L76.6816 76.0073L70.6 68.7595L121.98 37.9973Z" fill="#4A87E1"/>
<path d="M121.98 37.9973L82.7632 83.2551L76.6816 76.0073L70.6 68.7595L121.98 37.9973Z" stroke="white" stroke-width="1.18266"/>
<path d="M76.6815 76.0066L82.7631 83.2543L31.3829 114.017L70.5999 68.7588L76.6815 76.0066Z" fill="white"/>
<line x1="69.6989" y1="70.3287" x2="21.0574" y2="126.096" stroke="#4A87E1"/>
<line x1="81.1957" y1="83.4241" x2="18.4334" y2="122.627" stroke="#4A87E1"/>
<path d="M69.4337 82.0887C72.7925 86.0916 78.7603 86.6137 82.7631 83.2549C86.766 79.8961 87.2881 73.9283 83.9293 69.9255C80.5705 65.9227 74.6027 65.4006 70.5999 68.7593C66.5971 72.1181 66.075 78.0859 69.4337 82.0887Z" fill="#4A87E1"/>
<path d="M73.5106 78.6676C74.9801 80.4188 77.591 80.6473 79.3422 79.1778C81.0935 77.7083 81.3219 75.0974 79.8524 73.3462C78.383 71.595 75.7721 71.3665 74.0208 72.836C72.2696 74.3055 72.0412 76.9164 73.5106 78.6676Z" fill="white"/>
</svg>
