<svg width="500" height="500" viewBox="0 0 500 500" fill="none" xmlns="http://www.w3.org/2000/svg">
<g clip-path="url(#clip0_247_249)">
<circle cx="250" cy="250" r="250" fill="#4A87E1"/>
<g clip-path="url(#clip1_247_249)">
<path d="M378.681 352.35C379.043 351.336 378.883 350.209 378.254 349.335C377.624 348.461 376.581 347.945 375.529 347.976L301.332 349.565V332.194L363.42 343.357C363.613 343.391 363.807 343.408 363.999 343.408C364.959 343.408 365.882 342.985 366.51 342.234C367.264 341.332 367.476 340.094 367.066 338.993L301.126 161.92C300.574 160.435 299.035 159.561 297.479 159.84C295.92 160.121 294.786 161.478 294.786 163.062V349.705L289.223 349.825V67.2727C289.223 65.7467 288.169 64.4236 286.682 64.0824C285.194 63.7421 283.669 64.4727 283.005 65.8465L155.571 329.078C155.078 330.095 155.145 331.294 155.748 332.25C156.348 333.201 157.393 333.777 158.516 333.777C158.523 333.777 158.53 333.777 158.535 333.777L282.677 333.055V349.965L275.89 350.11V339.392C275.89 338.488 275.515 337.624 274.855 337.005C274.196 336.386 273.31 336.066 272.407 336.126L214.617 339.833C212.894 339.944 211.553 341.373 211.553 343.1V351.487L133.256 353.163C132.247 353.184 131.305 353.67 130.702 354.48C130.099 355.288 129.903 356.331 130.171 357.303L132.46 365.63H121.473C119.665 365.63 118.2 367.095 118.2 368.903V384.65C116.893 383.787 115.12 383.956 114.014 385.138C112.778 386.457 112.846 388.529 114.165 389.764C120.798 395.976 131.188 395.976 137.82 389.764C141.944 385.903 148.403 385.903 152.525 389.764C159.157 395.976 169.549 395.975 176.18 389.764C180.303 385.902 186.763 385.902 190.886 389.764C197.517 395.975 207.908 395.976 214.541 389.764C218.664 385.902 225.123 385.902 229.246 389.764C235.878 395.976 246.268 395.975 252.901 389.764C257.024 385.903 263.483 385.902 267.606 389.764C274.238 395.975 284.628 395.976 291.261 389.764C295.385 385.902 301.844 385.903 305.966 389.764C309.282 392.87 313.538 394.423 317.794 394.423C322.049 394.423 326.305 392.87 329.621 389.764C333.744 385.902 340.204 385.903 344.326 389.764C350.958 395.976 361.349 395.976 367.981 389.764C369.3 388.529 369.368 386.458 368.133 385.138C366.897 383.819 364.826 383.75 363.506 384.987C360.293 387.996 355.665 388.649 351.826 386.968C371.275 372.582 378.377 353.202 378.681 352.35ZM301.332 181.231L358.928 335.899L301.332 325.545V181.231ZM263.52 326.621L182.746 287.968L190.904 271.117L282.678 315.028V326.509L263.52 326.621ZM248.537 326.708L205.676 326.958L171.735 310.711L179.893 293.86L248.537 326.708ZM282.678 111.72L270.816 106.046L278.973 89.1963L282.677 90.9686V111.72H282.678ZM282.678 118.976V139.733L259.806 128.789L267.963 111.938L282.678 118.976ZM282.678 146.989V167.732L248.798 151.527L256.954 134.681L282.678 146.989ZM282.678 174.988V195.746L237.788 174.269L245.946 157.419L282.678 174.988ZM282.678 203.003V223.752L226.783 197.003L234.936 180.161L282.678 203.003ZM282.678 231.009V251.759L215.77 219.75L223.931 202.894L282.678 231.009ZM282.678 259.015V279.766L204.764 242.486L212.918 225.642L282.678 259.015ZM282.678 287.022V307.772L193.755 265.226L201.911 248.378L282.678 287.022ZM282.678 83.7126L281.826 83.3051L282.678 81.5451V83.7126ZM168.883 316.602L190.698 327.045L163.753 327.201L168.883 316.602ZM218.099 346.169L269.344 342.881V350.249L218.099 351.347V346.169ZM124.746 387.802V372.176H134.261L137.059 382.351C135.738 383.051 134.484 383.92 133.345 384.987C130.959 387.222 127.791 388.154 124.746 387.802ZM346.171 382.961C339.647 378.871 330.955 379.546 325.146 384.987C321.023 388.849 314.564 388.849 310.441 384.987C303.808 378.775 293.419 378.775 286.786 384.987C282.663 388.849 276.204 388.849 272.081 384.987C265.449 378.775 255.058 378.775 248.426 384.987C244.303 388.849 237.843 388.849 233.721 384.987C227.089 378.775 216.698 378.775 210.066 384.987C205.943 388.849 199.484 388.849 195.36 384.987C188.729 378.775 178.338 378.775 171.706 384.987C167.582 388.848 161.123 388.849 157 384.987C153.201 381.429 148.172 379.919 143.32 380.436L137.595 359.617L370.503 354.631C367.221 361.183 359.678 373.594 346.171 382.961Z" fill="white"/>
<path d="M349.176 368.781C351.493 368.781 353.372 366.902 353.372 364.585C353.372 362.268 351.493 360.389 349.176 360.389C346.859 360.389 344.98 362.268 344.98 364.585C344.98 366.902 346.859 368.781 349.176 368.781Z" fill="white"/>
<path d="M363.505 406.564C359.382 410.426 352.923 410.426 348.8 406.564C342.168 400.352 331.777 400.353 325.145 406.564C321.022 410.426 314.563 410.426 310.44 406.564C303.807 400.352 293.417 400.353 286.785 406.564C282.662 410.425 276.202 410.426 272.079 406.564C265.448 400.352 255.057 400.351 248.424 406.564C244.301 410.426 237.841 410.425 233.719 406.564C227.088 400.352 216.697 400.352 210.064 406.564C205.941 410.426 199.482 410.425 195.359 406.564C188.727 400.352 178.337 400.352 171.704 406.564C167.58 410.425 161.121 410.425 156.998 406.564C150.366 400.352 139.975 400.352 133.343 406.564C129.22 410.426 122.761 410.425 118.638 406.564C117.319 405.329 115.246 405.396 114.012 406.715C112.776 408.034 112.844 410.106 114.163 411.342C120.796 417.554 131.185 417.554 137.818 411.342C141.942 407.481 148.401 407.481 152.523 411.342C159.155 417.554 169.546 417.553 176.178 411.342C180.301 407.48 186.76 407.48 190.883 411.342C197.515 417.553 207.906 417.554 214.538 411.342C218.661 407.48 225.12 407.48 229.244 411.342C235.876 417.554 246.266 417.553 252.899 411.342C257.022 407.481 263.481 407.48 267.604 411.342C274.235 417.553 284.626 417.554 291.259 411.342C295.383 407.48 301.842 407.481 305.964 411.342C309.28 414.448 313.536 416.001 317.791 416.001C322.047 416.001 326.303 414.448 329.619 411.342C333.742 407.48 340.202 407.481 344.324 411.342C350.956 417.554 361.346 417.554 367.979 411.342C369.298 410.106 369.366 408.034 368.13 406.715C366.896 405.396 364.825 405.328 363.505 406.564Z" fill="white"/>
</g>
</g>
<defs>
<clipPath id="clip0_247_249">
<rect width="500" height="500" fill="white"/>
</clipPath>
<clipPath id="clip1_247_249">
<rect width="352" height="352" fill="white" transform="translate(70 64)"/>
</clipPath>
</defs>
</svg>
