<svg width="16" height="20" viewBox="0 0 16 20" fill="none" xmlns="http://www.w3.org/2000/svg">
<rect x="0.5" y="2.5" width="15" height="15" rx="0.5" fill="#0975CD" stroke="#434157"/>
<path d="M8.1709 7.13184V14H6.99023V7.13184H8.1709ZM6.90137 5.31006C6.90137 5.11963 6.9585 4.95882 7.07275 4.82764C7.19124 4.69645 7.36475 4.63086 7.59326 4.63086C7.81755 4.63086 7.98893 4.69645 8.10742 4.82764C8.23014 4.95882 8.2915 5.11963 8.2915 5.31006C8.2915 5.49202 8.23014 5.6486 8.10742 5.77979C7.98893 5.90674 7.81755 5.97021 7.59326 5.97021C7.36475 5.97021 7.19124 5.90674 7.07275 5.77979C6.9585 5.6486 6.90137 5.49202 6.90137 5.31006Z" fill="white"/>
</svg>
